<?xml version="1.0" standalone="no"?>
<!DOCTYPE svg PUBLIC "-//W3C//DTD SVG 20010904//EN"
 "http://www.w3.org/TR/2001/REC-SVG-20010904/DTD/svg10.dtd">
<svg version="1.0" xmlns="http://www.w3.org/2000/svg"
 width="419.000000pt" height="419.000000pt" viewBox="0 0 419.000000 419.000000"
 preserveAspectRatio="xMidYMid meet">
<metadata>
Created by potrace 1.11, written by Peter Selinger 2001-2013
</metadata>
<g transform="translate(0.000000,419.000000) scale(0.100000,-0.100000)"
fill="#000000" stroke="none">
<path d="M3972 4166 c-15 -11 -709 -701 -1542 -1532 -833 -832 -1718 -1714
-1966 -1962 -472 -470 -474 -472 -459 -541 15 -70 113 -134 180 -117 25 6 155
135 2577 2552 1504 1501 1442 1436 1424 1508 -9 36 -83 105 -119 110 -49 8
-66 4 -95 -18z"/>
<path d="M393 4141 c-256 -73 -420 -363 -346 -610 36 -121 135 -251 243 -321
146 -94 344 -103 500 -23 82 41 184 147 221 228 73 163 62 327 -35 494 -22 38
-127 139 -178 172 -112 72 -276 96 -405 60z"/>
<path d="M3477 1035 c-306 -104 -436 -448 -276 -731 42 -75 166 -188 245 -224
298 -137 642 38 704 357 13 66 9 181 -9 226 -6 15 -8 27 -5 27 17 0 -71 135
-124 192 -116 123 -217 170 -372 174 -77 1 -108 -3 -163 -21z"/>
</g>
</svg>
