<?xml version="1.0" encoding="UTF-8" standalone="no" ?>
<!DOCTYPE svg PUBLIC "-//W3C//DTD SVG 1.1//EN" "http://www.w3.org/Graphics/SVG/1.1/DTD/svg11.dtd">
<svg xmlns="http://www.w3.org/2000/svg" xmlns:xlink="http://www.w3.org/1999/xlink" version="1.1" width="640" height="640" viewBox="0 0 640 640" xml:space="preserve">
<desc>Created with Fabric.js 3.6.6</desc>
<defs>
</defs>
<g transform="matrix(1.2 0 0 1.2 322.28 320.22)"  >
<g style=""   >
		<g transform="matrix(1 0 0 1 -93.75 -234.38)"  >
<polygon style="stroke: none; stroke-width: 1; stroke-dasharray: none; stroke-linecap: butt; stroke-dashoffset: 0; stroke-linejoin: miter; stroke-miterlimit: 4; fill: rgb(145,22,254); fill-rule: nonzero; opacity: 1;"  points="-62.5,0 0,-31.25 62.5,0 0,31.25 " />
</g>
		<g transform="matrix(1 0 0 1 -125 -187.5)"  >
<polygon style="stroke: none; stroke-width: 1; stroke-dasharray: none; stroke-linecap: butt; stroke-dashoffset: 0; stroke-linejoin: miter; stroke-miterlimit: 4; fill: rgb(201,86,255); fill-rule: nonzero; opacity: 1;"  points="-31.25,-46.88 31.25,-15.63 31.25,46.88 -31.25,15.63 " />
</g>
		<g transform="matrix(1 0 0 1 -62.5 -187.5)"  >
<polygon style="stroke: none; stroke-width: 1; stroke-dasharray: none; stroke-linecap: butt; stroke-dashoffset: 0; stroke-linejoin: miter; stroke-miterlimit: 4; fill: rgb(87,0,201); fill-rule: nonzero; opacity: 1;"  points="-31.25,-15.63 31.25,-46.88 31.25,15.63 -31.25,46.88 " />
</g>
		<g transform="matrix(1 0 0 1 -31.25 -203.13)"  >
<polygon style="stroke: none; stroke-width: 1; stroke-dasharray: none; stroke-linecap: butt; stroke-dashoffset: 0; stroke-linejoin: miter; stroke-miterlimit: 4; fill: rgb(145,22,254); fill-rule: nonzero; opacity: 1;"  points="-62.5,0 0,-31.25 62.5,0 0,31.25 " />
</g>
		<g transform="matrix(1 0 0 1 -62.5 -156.25)"  >
<polygon style="stroke: none; stroke-width: 1; stroke-dasharray: none; stroke-linecap: butt; stroke-dashoffset: 0; stroke-linejoin: miter; stroke-miterlimit: 4; fill: rgb(201,86,255); fill-rule: nonzero; opacity: 1;"  points="-31.25,-46.88 31.25,-15.63 31.25,46.88 -31.25,15.63 " />
</g>
		<g transform="matrix(1 0 0 1 0 -156.25)"  >
<polygon style="stroke: none; stroke-width: 1; stroke-dasharray: none; stroke-linecap: butt; stroke-dashoffset: 0; stroke-linejoin: miter; stroke-miterlimit: 4; fill: rgb(87,0,201); fill-rule: nonzero; opacity: 1;"  points="-31.25,-15.63 31.25,-46.88 31.25,15.63 -31.25,46.88 " />
</g>
		<g transform="matrix(1 0 0 1 31.25 -171.88)"  >
<polygon style="stroke: none; stroke-width: 1; stroke-dasharray: none; stroke-linecap: butt; stroke-dashoffset: 0; stroke-linejoin: miter; stroke-miterlimit: 4; fill: rgb(145,22,254); fill-rule: nonzero; opacity: 1;"  points="-62.5,0 0,-31.25 62.5,0 0,31.25 " />
</g>
		<g transform="matrix(1 0 0 1 0 -125)"  >
<polygon style="stroke: none; stroke-width: 1; stroke-dasharray: none; stroke-linecap: butt; stroke-dashoffset: 0; stroke-linejoin: miter; stroke-miterlimit: 4; fill: rgb(201,86,255); fill-rule: nonzero; opacity: 1;"  points="-31.25,-46.88 31.25,-15.63 31.25,46.88 -31.25,15.63 " />
</g>
		<g transform="matrix(1 0 0 1 62.5 -125)"  >
<polygon style="stroke: none; stroke-width: 1; stroke-dasharray: none; stroke-linecap: butt; stroke-dashoffset: 0; stroke-linejoin: miter; stroke-miterlimit: 4; fill: rgb(87,0,201); fill-rule: nonzero; opacity: 1;"  points="-31.25,-15.63 31.25,-46.88 31.25,15.63 -31.25,46.88 " />
</g>
		<g transform="matrix(1 0 0 1 93.75 -140.63)"  >
<polygon style="stroke: none; stroke-width: 1; stroke-dasharray: none; stroke-linecap: butt; stroke-dashoffset: 0; stroke-linejoin: miter; stroke-miterlimit: 4; fill: rgb(145,22,254); fill-rule: nonzero; opacity: 1;"  points="-62.5,0 0,-31.25 62.5,0 0,31.25 " />
</g>
		<g transform="matrix(1 0 0 1 62.5 -93.75)"  >
<polygon style="stroke: none; stroke-width: 1; stroke-dasharray: none; stroke-linecap: butt; stroke-dashoffset: 0; stroke-linejoin: miter; stroke-miterlimit: 4; fill: rgb(201,86,255); fill-rule: nonzero; opacity: 1;"  points="-31.25,-46.88 31.25,-15.63 31.25,46.88 -31.25,15.63 " />
</g>
		<g transform="matrix(1 0 0 1 125 -93.75)"  >
<polygon style="stroke: none; stroke-width: 1; stroke-dasharray: none; stroke-linecap: butt; stroke-dashoffset: 0; stroke-linejoin: miter; stroke-miterlimit: 4; fill: rgb(87,0,201); fill-rule: nonzero; opacity: 1;"  points="-31.25,-15.63 31.25,-46.88 31.25,15.63 -31.25,46.88 " />
</g>
		<g transform="matrix(1 0 0 1 156.25 -109.38)"  >
<polygon style="stroke: none; stroke-width: 1; stroke-dasharray: none; stroke-linecap: butt; stroke-dashoffset: 0; stroke-linejoin: miter; stroke-miterlimit: 4; fill: rgb(145,22,254); fill-rule: nonzero; opacity: 1;"  points="-62.5,0 0,-31.25 62.5,0 0,31.25 " />
</g>
		<g transform="matrix(1 0 0 1 125 -62.5)"  >
<polygon style="stroke: none; stroke-width: 1; stroke-dasharray: none; stroke-linecap: butt; stroke-dashoffset: 0; stroke-linejoin: miter; stroke-miterlimit: 4; fill: rgb(201,86,255); fill-rule: nonzero; opacity: 1;"  points="-31.25,-46.88 31.25,-15.63 31.25,46.88 -31.25,15.63 " />
</g>
		<g transform="matrix(1 0 0 1 187.5 -62.5)"  >
<polygon style="stroke: none; stroke-width: 1; stroke-dasharray: none; stroke-linecap: butt; stroke-dashoffset: 0; stroke-linejoin: miter; stroke-miterlimit: 4; fill: rgb(87,0,201); fill-rule: nonzero; opacity: 1;"  points="-31.25,-15.63 31.25,-46.88 31.25,15.63 -31.25,46.88 " />
</g>
		<g transform="matrix(1 0 0 1 93.75 -78.13)"  >
<polygon style="stroke: none; stroke-width: 1; stroke-dasharray: none; stroke-linecap: butt; stroke-dashoffset: 0; stroke-linejoin: miter; stroke-miterlimit: 4; fill: rgb(145,22,254); fill-rule: nonzero; opacity: 1;"  points="-62.5,0 0,-31.25 62.5,0 0,31.25 " />
</g>
		<g transform="matrix(1 0 0 1 62.5 -31.25)"  >
<polygon style="stroke: none; stroke-width: 1; stroke-dasharray: none; stroke-linecap: butt; stroke-dashoffset: 0; stroke-linejoin: miter; stroke-miterlimit: 4; fill: rgb(201,86,255); fill-rule: nonzero; opacity: 1;"  points="-31.25,-46.88 31.25,-15.63 31.25,46.88 -31.25,15.63 " />
</g>
		<g transform="matrix(1 0 0 1 125 -31.25)"  >
<polygon style="stroke: none; stroke-width: 1; stroke-dasharray: none; stroke-linecap: butt; stroke-dashoffset: 0; stroke-linejoin: miter; stroke-miterlimit: 4; fill: rgb(87,0,201); fill-rule: nonzero; opacity: 1;"  points="-31.25,-15.63 31.25,-46.88 31.25,15.63 -31.25,46.88 " />
</g>
		<g transform="matrix(1 0 0 1 31.25 -46.88)"  >
<polygon style="stroke: none; stroke-width: 1; stroke-dasharray: none; stroke-linecap: butt; stroke-dashoffset: 0; stroke-linejoin: miter; stroke-miterlimit: 4; fill: rgb(145,22,254); fill-rule: nonzero; opacity: 1;"  points="-62.5,0 0,-31.25 62.5,0 0,31.25 " />
</g>
		<g transform="matrix(1 0 0 1 0 -0.01)"  >
<polygon style="stroke: none; stroke-width: 1; stroke-dasharray: none; stroke-linecap: butt; stroke-dashoffset: 0; stroke-linejoin: miter; stroke-miterlimit: 4; fill: rgb(201,86,255); fill-rule: nonzero; opacity: 1;"  points="-31.25,-46.88 31.25,-15.63 31.25,46.88 -31.25,15.63 " />
</g>
		<g transform="matrix(1 0 0 1 62.5 -0.01)"  >
<polygon style="stroke: none; stroke-width: 1; stroke-dasharray: none; stroke-linecap: butt; stroke-dashoffset: 0; stroke-linejoin: miter; stroke-miterlimit: 4; fill: rgb(87,0,201); fill-rule: nonzero; opacity: 1;"  points="-31.25,-15.63 31.25,-46.88 31.25,15.63 -31.25,46.88 " />
</g>
		<g transform="matrix(1 0 0 1 -31.25 -15.63)"  >
<polygon style="stroke: none; stroke-width: 1; stroke-dasharray: none; stroke-linecap: butt; stroke-dashoffset: 0; stroke-linejoin: miter; stroke-miterlimit: 4; fill: rgb(145,22,254); fill-rule: nonzero; opacity: 1;"  points="-62.5,0 0,-31.25 62.5,0 0,31.25 " />
</g>
		<g transform="matrix(1 0 0 1 -62.5 31.25)"  >
<polygon style="stroke: none; stroke-width: 1; stroke-dasharray: none; stroke-linecap: butt; stroke-dashoffset: 0; stroke-linejoin: miter; stroke-miterlimit: 4; fill: rgb(201,86,255); fill-rule: nonzero; opacity: 1;"  points="-31.25,-46.88 31.25,-15.63 31.25,46.88 -31.25,15.63 " />
</g>
		<g transform="matrix(1 0 0 1 0 31.25)"  >
<polygon style="stroke: none; stroke-width: 1; stroke-dasharray: none; stroke-linecap: butt; stroke-dashoffset: 0; stroke-linejoin: miter; stroke-miterlimit: 4; fill: rgb(87,0,201); fill-rule: nonzero; opacity: 1;"  points="-31.25,-15.63 31.25,-46.88 31.25,15.63 -31.25,46.88 " />
</g>
		<g transform="matrix(1 0 0 1 -93.75 15.62)"  >
<polygon style="stroke: none; stroke-width: 1; stroke-dasharray: none; stroke-linecap: butt; stroke-dashoffset: 0; stroke-linejoin: miter; stroke-miterlimit: 4; fill: rgb(145,22,254); fill-rule: nonzero; opacity: 1;"  points="-62.5,0 0,-31.25 62.5,0 0,31.25 " />
</g>
		<g transform="matrix(1 0 0 1 -125 62.51)"  >
<polygon style="stroke: none; stroke-width: 1; stroke-dasharray: none; stroke-linecap: butt; stroke-dashoffset: 0; stroke-linejoin: miter; stroke-miterlimit: 4; fill: rgb(201,86,255); fill-rule: nonzero; opacity: 1;"  points="-31.25,-46.88 31.25,-15.63 31.25,46.88 -31.25,15.63 " />
</g>
		<g transform="matrix(1 0 0 1 -62.5 62.51)"  >
<polygon style="stroke: none; stroke-width: 1; stroke-dasharray: none; stroke-linecap: butt; stroke-dashoffset: 0; stroke-linejoin: miter; stroke-miterlimit: 4; fill: rgb(87,0,201); fill-rule: nonzero; opacity: 1;"  points="-31.25,-15.63 31.25,-46.88 31.25,15.63 -31.25,46.88 " />
</g>
		<g transform="matrix(1 0 0 1 -156.25 46.88)"  >
<polygon style="stroke: none; stroke-width: 1; stroke-dasharray: none; stroke-linecap: butt; stroke-dashoffset: 0; stroke-linejoin: miter; stroke-miterlimit: 4; fill: rgb(145,22,254); fill-rule: nonzero; opacity: 1;"  points="-62.5,0 0,-31.25 62.5,0 0,31.25 " />
</g>
		<g transform="matrix(1 0 0 1 -187.5 93.75)"  >
<polygon style="stroke: none; stroke-width: 1; stroke-dasharray: none; stroke-linecap: butt; stroke-dashoffset: 0; stroke-linejoin: miter; stroke-miterlimit: 4; fill: rgb(201,86,255); fill-rule: nonzero; opacity: 1;"  points="-31.25,-46.88 31.25,-15.63 31.25,46.88 -31.25,15.63 " />
</g>
		<g transform="matrix(1 0 0 1 -125 93.75)"  >
<polygon style="stroke: none; stroke-width: 1; stroke-dasharray: none; stroke-linecap: butt; stroke-dashoffset: 0; stroke-linejoin: miter; stroke-miterlimit: 4; fill: rgb(87,0,201); fill-rule: nonzero; opacity: 1;"  points="-31.25,-15.63 31.25,-46.88 31.25,15.63 -31.25,46.88 " />
</g>
		<g transform="matrix(1 0 0 1 -93.75 78.13)"  >
<polygon style="stroke: none; stroke-width: 1; stroke-dasharray: none; stroke-linecap: butt; stroke-dashoffset: 0; stroke-linejoin: miter; stroke-miterlimit: 4; fill: rgb(145,22,254); fill-rule: nonzero; opacity: 1;"  points="-62.5,0 0,-31.25 62.5,0 0,31.25 " />
</g>
		<g transform="matrix(1 0 0 1 -125 125)"  >
<polygon style="stroke: none; stroke-width: 1; stroke-dasharray: none; stroke-linecap: butt; stroke-dashoffset: 0; stroke-linejoin: miter; stroke-miterlimit: 4; fill: rgb(201,86,255); fill-rule: nonzero; opacity: 1;"  points="-31.25,-46.88 31.25,-15.63 31.25,46.88 -31.25,15.63 " />
</g>
		<g transform="matrix(1 0 0 1 -62.5 125)"  >
<polygon style="stroke: none; stroke-width: 1; stroke-dasharray: none; stroke-linecap: butt; stroke-dashoffset: 0; stroke-linejoin: miter; stroke-miterlimit: 4; fill: rgb(87,0,201); fill-rule: nonzero; opacity: 1;"  points="-31.25,-15.63 31.25,-46.88 31.25,15.63 -31.25,46.88 " />
</g>
		<g transform="matrix(1 0 0 1 -31.25 109.38)"  >
<polygon style="stroke: none; stroke-width: 1; stroke-dasharray: none; stroke-linecap: butt; stroke-dashoffset: 0; stroke-linejoin: miter; stroke-miterlimit: 4; fill: rgb(145,22,254); fill-rule: nonzero; opacity: 1;"  points="-62.5,0 0,-31.25 62.5,0 0,31.25 " />
</g>
		<g transform="matrix(1 0 0 1 -62.5 156.25)"  >
<polygon style="stroke: none; stroke-width: 1; stroke-dasharray: none; stroke-linecap: butt; stroke-dashoffset: 0; stroke-linejoin: miter; stroke-miterlimit: 4; fill: rgb(201,86,255); fill-rule: nonzero; opacity: 1;"  points="-31.25,-46.88 31.25,-15.63 31.25,46.88 -31.25,15.63 " />
</g>
		<g transform="matrix(1 0 0 1 0 156.25)"  >
<polygon style="stroke: none; stroke-width: 1; stroke-dasharray: none; stroke-linecap: butt; stroke-dashoffset: 0; stroke-linejoin: miter; stroke-miterlimit: 4; fill: rgb(87,0,201); fill-rule: nonzero; opacity: 1;"  points="-31.25,-15.63 31.25,-46.88 31.25,15.63 -31.25,46.88 " />
</g>
		<g transform="matrix(1 0 0 1 31.25 140.63)"  >
<polygon style="stroke: none; stroke-width: 1; stroke-dasharray: none; stroke-linecap: butt; stroke-dashoffset: 0; stroke-linejoin: miter; stroke-miterlimit: 4; fill: rgb(145,22,254); fill-rule: nonzero; opacity: 1;"  points="-62.5,0 0,-31.25 62.5,0 0,31.25 " />
</g>
		<g transform="matrix(1 0 0 1 0 187.5)"  >
<polygon style="stroke: none; stroke-width: 1; stroke-dasharray: none; stroke-linecap: butt; stroke-dashoffset: 0; stroke-linejoin: miter; stroke-miterlimit: 4; fill: rgb(201,86,255); fill-rule: nonzero; opacity: 1;"  points="-31.25,-46.88 31.25,-15.63 31.25,46.88 -31.25,15.63 " />
</g>
		<g transform="matrix(1 0 0 1 62.5 187.5)"  >
<polygon style="stroke: none; stroke-width: 1; stroke-dasharray: none; stroke-linecap: butt; stroke-dashoffset: 0; stroke-linejoin: miter; stroke-miterlimit: 4; fill: rgb(87,0,201); fill-rule: nonzero; opacity: 1;"  points="-31.25,-15.63 31.25,-46.88 31.25,15.63 -31.25,46.88 " />
</g>
		<g transform="matrix(1 0 0 1 93.75 171.88)"  >
<polygon style="stroke: none; stroke-width: 1; stroke-dasharray: none; stroke-linecap: butt; stroke-dashoffset: 0; stroke-linejoin: miter; stroke-miterlimit: 4; fill: rgb(145,22,254); fill-rule: nonzero; opacity: 1;"  points="-62.5,0 0,-31.25 62.5,0 0,31.25 " />
</g>
		<g transform="matrix(1 0 0 1 62.5 218.75)"  >
<polygon style="stroke: none; stroke-width: 1; stroke-dasharray: none; stroke-linecap: butt; stroke-dashoffset: 0; stroke-linejoin: miter; stroke-miterlimit: 4; fill: rgb(201,86,255); fill-rule: nonzero; opacity: 1;"  points="-31.25,-46.88 31.25,-15.63 31.25,46.88 -31.25,15.63 " />
</g>
		<g transform="matrix(1 0 0 1 125 218.75)"  >
<polygon style="stroke: none; stroke-width: 1; stroke-dasharray: none; stroke-linecap: butt; stroke-dashoffset: 0; stroke-linejoin: miter; stroke-miterlimit: 4; fill: rgb(87,0,201); fill-rule: nonzero; opacity: 1;"  points="-31.25,-15.63 31.25,-46.88 31.25,15.63 -31.25,46.88 " />
</g>
</g>
</g>
</svg>